<svg id="Capa_1" data-name="Capa 1" xmlns="http://www.w3.org/2000/svg" viewBox="0 0 885.65 885.85"><defs><style>.cls-1{fill:#fff;}</style></defs><title>dog-bonee</title><path class="cls-1" d="M755.13,130.77a125.27,125.27,0,0,0-36.71-94.1c-49.09-49.1-128.39-48.8-177.5.3-38.79,38.8-47.5,96-24.2,143.6L180.62,516.78C133,493.48,75.82,502.18,37,541a125.41,125.41,0,0,0,93.8,214.2,124.9,124.9,0,0,0,36.7,94c49.1,49.1,128.4,48.8,177.5-.3a124.47,124.47,0,0,0,24.11-143.6l336.1-336.1c47.6,23.3,104.8,14.6,143.6-24.2,49.1-49.11,49.3-128.61.2-177.7A125.06,125.06,0,0,0,755.13,130.77Z" transform="translate(-0.1 0)"/></svg>