<svg id="Layer_1" data-name="Layer 1" xmlns="http://www.w3.org/2000/svg" viewBox="0 0 13.24 24.5"><defs><style>.cls-1{fill:#fff;}</style></defs><title>f-logo</title><path class="cls-1" d="M688.41,371.82h-3.17c-3.57,0-5.88,2.36-5.88,6v2.78h-3.19a.5.5,0,0,0-.5.5v4a.5.5,0,0,0,.5.5h3.19v10.16a.5.5,0,0,0,.5.5H684a.5.5,0,0,0,.5-.5V385.65h3.73a.5.5,0,0,0,.5-.5v-4a.5.5,0,0,0-.14-.35.53.53,0,0,0-.36-.15h-3.73v-2.35c0-1.14.27-1.71,1.74-1.71h2.14a.5.5,0,0,0,.5-.5v-3.74A.5.5,0,0,0,688.41,371.82Z" transform="translate(-675.67 -371.82)"/></svg>