<svg id="Layer_1" data-name="Layer 1" xmlns="http://www.w3.org/2000/svg" viewBox="0 0 24.5 24.5"><defs><style>.cls-1{fill:#fff;}</style></defs><title>instagram-logo</title><path class="cls-1" d="M687.76,371.82h-9.19a7.65,7.65,0,0,0-7.65,7.65v9.19a7.66,7.66,0,0,0,7.65,7.65h9.19a7.65,7.65,0,0,0,7.65-7.65v-9.19A7.64,7.64,0,0,0,687.76,371.82Zm5.36,16.84a5.37,5.37,0,0,1-5.36,5.36h-9.19a5.37,5.37,0,0,1-5.36-5.36v-9.19a5.37,5.37,0,0,1,5.36-5.36h9.19a5.37,5.37,0,0,1,5.36,5.36Z" transform="translate(-670.92 -371.82)"/><path class="cls-1" d="M683.17,377.94a6.13,6.13,0,1,0,6.12,6.12A6.12,6.12,0,0,0,683.17,377.94Zm0,9.95a3.83,3.83,0,1,1,3.82-3.83A3.84,3.84,0,0,1,683.17,387.89Z" transform="translate(-670.92 -371.82)"/><circle class="cls-1" cx="18.83" cy="5.66" r="0.82"/></svg>