<svg id="Layer_1" data-name="Layer 1" xmlns="http://www.w3.org/2000/svg" viewBox="0 0 55 55"><defs><style>.cls-1{fill:#2196f3;}.cls-2{fill:#fafafa;}</style></defs><title>messenger-logo</title><path class="cls-1" d="M710.56,383.86a27.52,27.52,0,0,0-55,0,25.85,25.85,0,0,0,9.17,19.61v7.88a1.14,1.14,0,0,0,1.14,1.15,1.17,1.17,0,0,0,.61-.17l6.39-4a28.39,28.39,0,0,0,10.19,1.87,27,27,0,0,0,27.5-26.35" transform="translate(-655.56 -357.5)"/><path class="cls-2" d="M701.16,376.29a1.15,1.15,0,0,0-1.46-.32l-11.92,6.5-7.41-6.36a1.15,1.15,0,0,0-1.56.06l-13.75,13.75a1.15,1.15,0,0,0,1.36,1.82l11.92-6.5,7.42,6.36a1.14,1.14,0,0,0,1.55-.06l13.75-13.75A1.15,1.15,0,0,0,701.16,376.29Z" transform="translate(-655.56 -357.5)"/></svg>