<svg id="Layer_1" data-name="Layer 1" xmlns="http://www.w3.org/2000/svg" viewBox="0 0 98.48 98.48"><defs><style>.cls-1{fill:#fff;}.cls-2{fill:#a5d9e5;}.cls-3{fill:#8f4414;}.cls-4{opacity:0.2;}</style></defs><title>moody-logo</title><path class="cls-1" d="M687.76,371.82h-9.19a7.65,7.65,0,0,0-7.65,7.65v9.19a7.66,7.66,0,0,0,7.65,7.65h9.19a7.65,7.65,0,0,0,7.65-7.65v-9.19A7.64,7.64,0,0,0,687.76,371.82Zm5.36,16.84a5.37,5.37,0,0,1-5.36,5.36h-9.19a5.37,5.37,0,0,1-5.36-5.36v-9.19a5.37,5.37,0,0,1,5.36-5.36h9.19a5.37,5.37,0,0,1,5.36,5.36Z" transform="translate(-633.6 -335.35)"/><path class="cls-1" d="M683.17,377.94a6.13,6.13,0,1,0,6.12,6.12A6.12,6.12,0,0,0,683.17,377.94Zm0,9.95a3.83,3.83,0,1,1,3.82-3.83A3.84,3.84,0,0,1,683.17,387.89Z" transform="translate(-633.6 -335.35)"/><circle class="cls-1" cx="56.15" cy="42.13" r="0.82"/><path class="cls-2" d="M732.08,384.59c0,.92,0,1.83-.08,2.74l0,.46c0,.15,0,.3,0,.45a48.83,48.83,0,0,1-5.13,18.52l-.22.45c-.07.14-.15.28-.23.42a49.24,49.24,0,1,1,5.72-23Z" transform="translate(-633.6 -335.35)"/><path class="cls-3" d="M708.19,400.86,707,410.2s-2.19,4.07-8.14.91c0,0-1.54-4,3.54-3.43l.68.15.68-8.55Z" transform="translate(-633.6 -335.35)"/><path d="M703.35,398.66l-.18,2.17-.07,1-.44,5.46-.17,0h0c-1.82-.2-3.09.14-3.76,1a3.43,3.43,0,0,0-.25,3l.06.15.15.09a9.43,9.43,0,0,0,4.34,1.25,5.09,5.09,0,0,0,4.41-2.34l0-.08.84-6.49.06-.46.06-.45.31-2.38Zm4.15,4,0,.46-.06.45-.84,6.49c-.3.5-2.3,3.33-7.33.74a2.41,2.41,0,0,1,.18-2c.46-.59,1.47-.81,2.92-.65l1.16.25.49-6.13,0-.48,0-.48.11-1.39,3.55,1.27Z" transform="translate(-633.6 -335.35)"/><path class="cls-3" d="M732.05,387.79l0,.45a48.83,48.83,0,0,1-5.13,18.52c-.07.15-.15.3-.23.45a55.46,55.46,0,0,1-10.14-1.79l-.78-.36-.58,9.32s-.49,5.88-9.45,2.07c0,0-2.16-3.84,3.69-3.61H710l.22-8.82-1.94-.63-.43-.14-.44-.14-.65-.21a21.15,21.15,0,0,1-2.79-1.13l-.44-.22-.44-.23-.84-.48-.39-.23-.38-.25a21.2,21.2,0,0,1-1.88-1.39l-4.78-4s-1.89.1-4.9,0h-.49l-.5,0a94.16,94.16,0,0,1-13.32-1.32c-.75-.13-1.5-.28-2.25-.43h0c-6.51-1.37-13.17-3.73-17.86-7.79l-.33-.29s-.6-.33-1.42-.87h0a18.33,18.33,0,0,1-3.15-2.52.46.46,0,0,1-.07-.07,5.29,5.29,0,0,1-.58-.73.93.93,0,0,1-.15-.59.9.9,0,0,1,.17-.48h0a1,1,0,0,1,.75-.44c1.39-.11,3.95-.31,7.21-.52,7.28-.48,18.08-1,27.28-.82l1.73,0,2.13.09a53.51,53.51,0,0,1,9.88,1.2,5.54,5.54,0,0,1,1.23.46,6.38,6.38,0,0,1,1.49,1.05,4.59,4.59,0,0,1,.37.39l.24.26h0c.37.39.82.84,1.36,1.31.24.22.51.44.79.66a20,20,0,0,0,12.23,4.32c.73,0,1.45,0,2.17.11A67.44,67.44,0,0,0,732.05,387.79Z" transform="translate(-633.6 -335.35)"/><path d="M718.87,387.59c-.81-.08-1.6-.1-2.21-.11A19.65,19.65,0,0,1,704,382.66h0a16,16,0,0,1-1.36-1.31h0l-.26-.29-.35-.36h0a6.6,6.6,0,0,0-1.61-1.15l0,0A6.16,6.16,0,0,0,699,379c-.65-.16-1.36-.31-2.13-.44-1.35-.23-2.88-.41-4.54-.55h0c-1.05-.09-2.17-.16-3.32-.22h0l-2.16-.08c-1.86-.06-3.8-.09-5.77-.09-12.55,0-26.54,1.06-30.42,1.38a1.48,1.48,0,0,0-1.2.82,1.43,1.43,0,0,0,.08,1.4c1.29,2,4.88,4.05,5.35,4.31,9.09,8.15,25.57,9.72,34.27,9.95h1c2.35,0,4,0,4.55,0l4.64,3.84a23.2,23.2,0,0,0,2,1.45l.39.25.38.23c.33.2.66.39,1,.57l.43.22c.14.07.29.15.44.21a21,21,0,0,0,2.69,1.08l.73.23.44.15.43.14,1.54.5-.2,8h-.19c-2.19-.09-3.61.38-4.22,1.38a3.16,3.16,0,0,0,.12,2.9l.08.14.14.06c3.57,1.51,6.3,1.73,8.11.63a4.27,4.27,0,0,0,2-3.09l.54-8.66.18.08.06,0a54.21,54.21,0,0,0,10.05,1.78c.08-.14.15-.28.22-.42s.16-.3.23-.45A54.51,54.51,0,0,1,716.67,405l-1.34-.62-.62,10a3.32,3.32,0,0,1-1.54,2.39c-1.5.91-4,.69-7.13-.63a2.12,2.12,0,0,1-.08-1.86c.43-.69,1.61-1,3.44-.95h1.08l.24-9.59-2.34-.76-.44-.14-.44-.15-.56-.18a21,21,0,0,1-2.9-1.18l-.43-.22-.44-.24c-.23-.12-.46-.26-.69-.4a3,3,0,0,1-.38-.24c-.13-.07-.26-.16-.38-.24a19.29,19.29,0,0,1-1.79-1.33L695,394.56h-.17c-.08,0-2,.1-5.07,0h-.5l-.5,0a95.22,95.22,0,0,1-11.22-1h0c-.84-.12-1.69-.27-2.55-.43h0c-6.88-1.28-14.1-3.62-19.08-7.87l-.44-.38-.08-.06s-3.84-2.17-5.07-4a.49.49,0,0,1,0-.51.52.52,0,0,1,.45-.31l1.2-.1,1.2-.09c1.32-.1,3-.22,4.86-.34,7-.46,17.4-1,26.38-.83h.88l1.69.05a62,62,0,0,1,11.86,1.26,5.78,5.78,0,0,1,2.88,1.77,17.63,17.63,0,0,0,1.56,1.54q.36.33.78.66c.21.17.44.34.67.51a20.49,20.49,0,0,0,11.94,4c.59,0,1.37,0,2.13.11a68.36,68.36,0,0,0,13.25-.25l0-.45,0-.46A67.41,67.41,0,0,1,718.87,387.59Z" transform="translate(-633.6 -335.35)"/><path class="cls-3" d="M684.12,380.58a1.72,1.72,0,0,1,1.23-2c3.23-.87,11.43-2.44,16.78,2.24,0,0,7.48,6.67-1.94,23.07a3.05,3.05,0,0,1-4.27,1.05c-1.2-.76-2.68-2.28-4.41-5.15C691.51,399.77,685.27,385.74,684.12,380.58Z" transform="translate(-633.6 -335.35)"/><path d="M705.13,386.1a12.34,12.34,0,0,0-.43-1.72c-.09-.27-.18-.53-.28-.77s-.29-.66-.43-.95h0a7.88,7.88,0,0,0-1.56-2.2c-4.75-4.16-11.63-3.55-15.57-2.72-.62.13-1.17.26-1.63.38l0,0a2.16,2.16,0,0,0-1.56,2.07,2.59,2.59,0,0,0,0,.47c.7,3.12,3.19,9.35,5.09,13.88l.2.47c.07.16.14.32.2.48,1,2.46,1.84,4.24,1.92,4.44l0,.05a16.05,16.05,0,0,0,4.56,5.3,3.47,3.47,0,0,0,1.86.54,3.53,3.53,0,0,0,.85-.1,3.48,3.48,0,0,0,2.19-1.65c.56-1,1.07-1.93,1.51-2.84.07-.14.14-.27.2-.41s.13-.27.19-.41C705.57,393.79,705.68,389.05,705.13,386.1Zm-3.61,14.26-.2.41c-.45.92-1,1.88-1.52,2.87a2.58,2.58,0,0,1-1.63,1.22,2.54,2.54,0,0,1-2-.33,15,15,0,0,1-4.25-5c-.1-.22-.8-1.82-1.75-4-.06-.16-.13-.31-.2-.47s-.13-.31-.19-.47c-.39-.92-.81-1.93-1.23-3a91.31,91.31,0,0,1-4-11.14,1.27,1.27,0,0,1,.91-1.49c.42-.11.92-.23,1.48-.35s1.34-.27,2.1-.37a24.42,24.42,0,0,1,3.3-.23h0a17.79,17.79,0,0,1,4.54.55,12.2,12.2,0,0,1,3.25,1.34,11.2,11.2,0,0,1,1.49,1.05l.18.15a6,6,0,0,1,.43.5h0a8.76,8.76,0,0,1,1,1.57,11.86,11.86,0,0,1,1,3.13c.5,2.8.37,7.28-2.54,13.61C701.65,400.08,701.59,400.22,701.52,400.36Z" transform="translate(-633.6 -335.35)"/><path d="M673.35,393.27c.12,0,7.79-.48,11.1-3.59a12.49,12.49,0,0,1-8.8,4Z" transform="translate(-633.6 -335.35)"/><circle class="cls-1" cx="45.53" cy="48.25" r="4.12"/><path d="M679.13,379.37a4.23,4.23,0,1,0,4.23,4.23A4.24,4.24,0,0,0,679.13,379.37Zm0,8.23a4,4,0,1,1,4-4A4,4,0,0,1,679.13,387.6Z" transform="translate(-633.6 -335.35)"/><circle cx="46.86" cy="49.58" r="1.38"/><circle class="cls-1" cx="47.59" cy="49.58" r="0.34"/><path d="M657.92,379c0-.11-8.48-.12-8,1l-.17.48s-.73,1,5.7,5.07C655.48,385.48,659,384,657.92,379Z" transform="translate(-633.6 -335.35)"/><ellipse class="cls-1" cx="19.05" cy="44.88" rx="0.99" ry="0.56"/><g class="cls-4"><path class="cls-1" d="M695.88,381.28c1.12.28,5.54,2,4.81,12.15a2.3,2.3,0,0,0,.19,1.32c.21.5.45.72,1-.6.07-.17,4.89-12.63-5.23-13.83a2.82,2.82,0,0,0-.82,0c-.37.06-.75.21-.51.58A.94.94,0,0,0,695.88,381.28Z" transform="translate(-633.6 -335.35)"/></g></svg>