<svg id="Layer_1" data-name="Layer 1" xmlns="http://www.w3.org/2000/svg" viewBox="0 0 32.11 32.11"><defs><style>.cls-1{fill:#fff;}</style></defs><title>paw</title><path class="cls-1" d="M749.13,340.64a17.26,17.26,0,0,1-1.56-1.68,5.86,5.86,0,0,1-.54-1.32c-.6-1.8-1.6-4.81-5.15-4.81s-4.56,3-5.15,4.81a6.38,6.38,0,0,1-.54,1.32,17.26,17.26,0,0,1-1.56,1.68c-1.38,1.36-2.94,2.9-3,5.32a4.3,4.3,0,0,0,1.13,3.19,4.43,4.43,0,0,0,3.25,1.2,6.37,6.37,0,0,0,3.48-1.07,3.92,3.92,0,0,1,4.72,0,6.37,6.37,0,0,0,3.48,1.07,4.45,4.45,0,0,0,3.25-1.2A4.38,4.38,0,0,0,752.1,346C752.06,343.54,750.5,342,749.13,340.64Zm8.12-9.51a2.5,2.5,0,0,0-2.13-1.22c-1.91,0-3.82,2.19-4.35,5a7.5,7.5,0,0,0-.13,1.39,4.82,4.82,0,0,0,.68,2.64,2.5,2.5,0,0,0,2.13,1.22c1.91,0,3.82-2.18,4.35-5h0a7.5,7.5,0,0,0,.13-1.39A4.73,4.73,0,0,0,757.25,331.13Zm-10.46-1.22c2.32,0,4.6-2.51,5.18-5.71a9.11,9.11,0,0,0,.12-1.24,5.26,5.26,0,0,0-1.25-3.79,3,3,0,0,0-2.2-.94c-2.32,0-4.59,2.51-5.17,5.71a7.92,7.92,0,0,0-.13,1.25,5.22,5.22,0,0,0,1.25,3.78A3,3,0,0,0,746.79,329.91Zm-14.35,9a4.82,4.82,0,0,0,.68-2.64,7.5,7.5,0,0,0-.13-1.39c-.54-2.78-2.45-5-4.35-5a2.5,2.5,0,0,0-2.13,1.22,4.82,4.82,0,0,0-.69,2.64,7.53,7.53,0,0,0,.14,1.39h0c.53,2.79,2.44,5,4.35,5A2.51,2.51,0,0,0,732.44,338.91Zm4.52-9a3,3,0,0,0,2.2-.94,5.23,5.23,0,0,0,1.26-3.78,7.92,7.92,0,0,0-.13-1.25c-.58-3.2-2.85-5.71-5.17-5.71a3,3,0,0,0-2.2.94,5.27,5.27,0,0,0-1.26,3.79,9.17,9.17,0,0,0,.13,1.24C732.37,327.4,734.64,329.91,737,329.91Z" transform="translate(-725.82 -318.23)"/></svg>