<svg id="Layer_1" data-name="Layer 1" xmlns="http://www.w3.org/2000/svg" viewBox="0 0 23.21 24.62"><title>share-logo</title><path d="M732.51,397.31A4.39,4.39,0,0,0,729,399l-6.76-3.78a4.43,4.43,0,0,0,.24-1.46,4.13,4.13,0,0,0-.25-1.45l6.76-3.78a4.39,4.39,0,1,0-.91-2.67,4.43,4.43,0,0,0,.25,1.46l-6.75,3.77a4.4,4.4,0,1,0,0,5.34l6.76,3.78a4.25,4.25,0,0,0-.26,1.47,4.41,4.41,0,1,0,4.4-4.4Zm0-14.44a3,3,0,1,1-3,3A3,3,0,0,1,732.51,382.87Zm-14.4,13.95a3,3,0,1,1,3-3A3,3,0,0,1,718.11,396.82Zm14.4,7.91a3,3,0,1,1,3-3A3,3,0,0,1,732.51,404.73Z" transform="translate(-713.7 -381.49)"/></svg>